 <svg class="activity" width="520" height="400" viewBox="0 0 520 400" fill="none" xmlns="http://www.w3.org/2000/svg">
            <g filter="url(#filter_activity)">
                <rect x="60" y="52" width="400" height="280" rx="12" fill="white" />
                <g class="bubble">
                    <rect x="174" y="168" width="136" height="24" rx="6" fill="#2B3664" />
                    <path d="M185.06 182.524L186.908 180.4C187.412 179.836 187.772 179.164 187.772 178.408C187.772 176.98 186.752 176.032 185.18 176.032C183.608 176.032 182.696 176.992 182.504 178.396L183.932 178.636C184.028 177.952 184.424 177.496 185.12 177.496C185.732 177.496 186.164 177.868 186.164 178.396C186.164 178.66 185.948 179.068 185.624 179.464L182.552 183.148V184H187.844V182.524H185.06ZM193.623 179.764C194.259 179.44 194.655 178.864 194.655 178.204C194.679 176.872 193.599 176.032 192.219 176.032C191.211 176.032 190.395 176.488 189.843 177.136L190.707 178.12C191.007 177.736 191.547 177.484 192.039 177.484C192.615 177.484 193.023 177.784 193.047 178.264C193.083 178.816 192.591 179.272 191.739 179.272H191.295V180.484H192.051C192.855 180.484 193.407 180.94 193.407 181.6C193.407 182.236 192.867 182.668 192.039 182.668C191.463 182.668 191.007 182.38 190.635 181.876L189.531 182.728C190.095 183.628 190.995 184.108 192.111 184.108C193.815 184.108 195.015 183.136 195.015 181.72C195.015 180.796 194.475 180.076 193.623 179.764ZM200.1 178.672C199.548 178.672 199.032 178.84 198.672 179.104L198.972 177.592H202.14V176.128H197.676L196.98 180.088L197.916 180.676C198.396 180.256 199.032 179.968 199.644 179.968C200.484 179.968 201.084 180.52 201.084 181.288C201.084 182.092 200.46 182.644 199.56 182.644C198.948 182.644 198.264 182.236 198 181.684L196.776 182.5C197.28 183.448 198.468 184.108 199.632 184.108C201.264 184.108 202.68 183.052 202.68 181.3C202.68 179.788 201.624 178.672 200.1 178.672Z" fill="white" />
                    <path d="M212.96 183H215.63C217.59 183 218.74 181.52 218.74 179.57C218.74 177.61 217.59 176.11 215.63 176.11H212.96V183ZM213.87 182.16V176.95H215.63C217.08 176.95 217.83 178.1 217.83 179.57C217.83 181.04 217.08 182.16 215.63 182.16H213.87ZM222.886 183.1C224.216 183.1 225.336 182.13 225.336 180.65C225.336 179.17 224.216 178.23 222.886 178.23C221.556 178.23 220.446 179.17 220.446 180.65C220.446 182.13 221.556 183.1 222.886 183.1ZM222.886 182.28C222.036 182.28 221.326 181.62 221.326 180.65C221.326 179.69 222.036 179.05 222.886 179.05C223.746 179.05 224.466 179.69 224.466 180.65C224.466 181.62 223.746 182.28 222.886 182.28ZM233.159 178.33L231.969 181.65L230.769 178.33H229.919L228.729 181.65L227.539 178.33H226.599L228.379 183H229.099L230.339 179.53L231.629 183H232.359L234.099 178.33H233.159ZM238.182 178.23C237.672 178.23 236.912 178.47 236.632 179.04V178.33H235.762V183H236.632V180.47C236.632 179.46 237.412 179.09 238.062 179.09C238.712 179.09 239.192 179.57 239.192 180.35V183H240.062V180.3C240.072 178.99 239.342 178.23 238.182 178.23ZM242.264 183H243.134V175.78H242.264V183ZM247.517 183.1C248.847 183.1 249.967 182.13 249.967 180.65C249.967 179.17 248.847 178.23 247.517 178.23C246.187 178.23 245.077 179.17 245.077 180.65C245.077 182.13 246.187 183.1 247.517 183.1ZM247.517 182.28C246.667 182.28 245.957 181.62 245.957 180.65C245.957 179.69 246.667 179.05 247.517 179.05C248.377 179.05 249.097 179.69 249.097 180.65C249.097 181.62 248.377 182.28 247.517 182.28ZM255.618 178.33V179.06C255.308 178.51 254.648 178.23 253.948 178.23C252.668 178.23 251.618 179.18 251.618 180.66C251.618 182.13 252.678 183.1 253.958 183.1C254.628 183.1 255.308 182.8 255.618 182.26V183H256.488V178.33H255.618ZM254.028 182.28C253.178 182.28 252.498 181.58 252.498 180.65C252.498 179.71 253.178 179.05 254.028 179.05C254.798 179.05 255.618 179.64 255.618 180.65C255.618 181.65 254.868 182.28 254.028 182.28ZM262.452 175.78V179.06C262.142 178.51 261.482 178.23 260.782 178.23C259.502 178.23 258.452 179.18 258.452 180.66C258.452 182.13 259.512 183.1 260.792 183.1C261.462 183.1 262.142 182.8 262.452 182.26V183H263.322V175.78H262.452ZM260.862 182.28C260.012 182.28 259.332 181.58 259.332 180.65C259.332 179.71 260.012 179.05 260.862 179.05C261.632 179.05 262.452 179.64 262.452 180.65C262.452 181.65 261.702 182.28 260.862 182.28ZM269.996 180.65C269.996 179.17 269.006 178.23 267.676 178.23C266.346 178.23 265.276 179.17 265.276 180.65C265.276 182.13 266.346 183.1 267.676 183.1C268.576 183.1 269.416 182.68 269.826 181.87L269.066 181.57C268.806 182.04 268.276 182.28 267.706 182.28C266.906 182.28 266.306 181.87 266.176 181.04H269.976C269.986 180.91 269.996 180.78 269.996 180.65ZM266.186 180.29C266.326 179.45 266.886 179.05 267.676 179.05C268.446 179.05 269.016 179.49 269.126 180.29H266.186ZM275.612 175.78V179.06C275.302 178.51 274.642 178.23 273.942 178.23C272.662 178.23 271.612 179.18 271.612 180.66C271.612 182.13 272.672 183.1 273.952 183.1C274.622 183.1 275.302 182.8 275.612 182.26V183H276.482V175.78H275.612ZM274.022 182.28C273.172 182.28 272.492 181.58 272.492 180.65C272.492 179.71 273.172 179.05 274.022 179.05C274.792 179.05 275.612 179.64 275.612 180.65C275.612 181.65 274.862 182.28 274.022 182.28ZM286.275 178.33H283.285V177.72C283.275 177.11 283.495 176.6 284.325 176.6H284.545V175.78H284.175C282.925 175.78 282.415 176.62 282.415 177.84V178.33H281.515V179.08H282.415V183H283.285V179.08H285.405V183H286.275V178.33ZM285.835 176.03C285.505 176.03 285.225 176.28 285.225 176.61C285.225 176.94 285.505 177.19 285.835 177.19C286.185 177.19 286.455 176.94 286.455 176.61C286.455 176.28 286.185 176.03 285.835 176.03ZM288.537 183H289.407V175.78H288.537V183ZM296.07 180.65C296.07 179.17 295.08 178.23 293.75 178.23C292.42 178.23 291.35 179.17 291.35 180.65C291.35 182.13 292.42 183.1 293.75 183.1C294.65 183.1 295.49 182.68 295.9 181.87L295.14 181.57C294.88 182.04 294.35 182.28 293.78 182.28C292.98 182.28 292.38 181.87 292.25 181.04H296.05C296.06 180.91 296.07 180.78 296.07 180.65ZM292.26 180.29C292.4 179.45 292.96 179.05 293.75 179.05C294.52 179.05 295.09 179.49 295.2 180.29H292.26ZM299.366 183.1C300.336 183.1 301.176 182.57 301.176 181.7C301.176 181.17 300.926 180.59 299.956 180.35L299.266 180.18C298.966 180.11 298.666 179.94 298.666 179.62C298.666 179.26 298.966 178.99 299.416 178.99C299.786 178.99 300.156 179.23 300.166 179.59H301.006C301.006 178.65 300.186 178.23 299.396 178.23C298.456 178.23 297.796 178.82 297.796 179.59C297.796 180.34 298.246 180.72 299.026 180.93L299.666 181.08C300.036 181.16 300.306 181.34 300.306 181.69C300.306 182.07 299.956 182.34 299.366 182.34C298.796 182.34 298.446 182.01 298.436 181.61H297.626C297.666 182.57 298.526 183.1 299.366 183.1Z" fill="white" />
                    <rect x="190" y="192" width="8" height="8" transform="rotate(-45 190 192)" fill="#2B3664" />
                </g>
                <path class="days day-1" d="M131.289 294L130.524 287.799H129.786L127.581 292.398L125.367 287.799H124.629L123.873 294H124.674L125.241 289.275L127.23 293.325H127.941L129.912 289.275L130.488 294H131.289ZM136.103 294.09C137.876 294.09 139.253 292.668 139.253 290.913C139.253 289.149 137.876 287.727 136.103 287.727C134.339 287.727 132.971 289.149 132.971 290.913C132.971 292.668 134.339 294.09 136.103 294.09ZM136.103 293.334C134.798 293.334 133.79 292.236 133.79 290.913C133.79 289.581 134.798 288.483 136.103 288.483C137.426 288.483 138.434 289.581 138.434 290.913C138.434 292.236 137.426 293.334 136.103 293.334ZM144.961 287.799V292.506L142.117 287.799H141.307V294H142.126V289.275L144.988 294H145.78V287.799H144.961Z" fill="#6B79B3" />
                <path class="days day-2" d="M190.274 287.799H185.675V288.555H187.565V294H188.384V288.555H190.274V287.799ZM194.253 294.09C195.477 294.09 196.512 293.28 196.512 291.876V287.799H195.693V291.876C195.693 292.848 195.027 293.307 194.253 293.307C193.479 293.307 192.813 292.848 192.813 291.876V287.799H191.994V291.876C191.994 293.28 193.029 294.09 194.253 294.09ZM199.725 293.244V291.336H202.209V290.571H199.725V288.555H202.569V287.799H198.915V294H202.659V293.244H199.725ZM206.519 294.09C207.806 294.09 208.589 293.217 208.589 292.254C208.589 291.372 207.959 290.796 206.906 290.535L206.096 290.337C205.268 290.139 205.196 289.689 205.196 289.473C205.196 288.861 205.772 288.483 206.393 288.483C207.059 288.483 207.572 288.906 207.572 289.527H208.382C208.382 288.42 207.509 287.727 206.42 287.727C205.34 287.727 204.377 288.411 204.377 289.482C204.377 289.986 204.584 290.76 205.898 291.075L206.699 291.273C207.221 291.408 207.77 291.678 207.77 292.281C207.77 292.83 207.329 293.334 206.519 293.334C205.691 293.334 205.169 292.776 205.142 292.227H204.332C204.341 293.19 205.214 294.09 206.519 294.09Z" fill="#6B79B3" />
                <path class="days day-3" d="M255.994 287.799L254.419 292.686L253.258 288.645H252.637L251.485 292.704L249.901 287.799H249.028L251.125 294H251.836L252.943 290.085L254.059 294H254.77L256.867 287.799H255.994ZM259.438 293.244V291.336H261.922V290.571H259.438V288.555H262.282V287.799H258.628V294H262.372V293.244H259.438ZM264.449 294H266.852C268.616 294 269.651 292.668 269.651 290.913C269.651 289.149 268.616 287.799 266.852 287.799H264.449V294ZM265.268 293.244V288.555H266.852C268.157 288.555 268.832 289.59 268.832 290.913C268.832 292.236 268.157 293.244 266.852 293.244H265.268Z" fill="#6B79B3" />
                <path class="days day-4" d="M310.953 287.799H306.354V288.555H308.244V294H309.063V288.555H310.953V287.799ZM316.606 287.799V290.544H313.564V287.799H312.745V294H313.564V291.291H316.606V294H317.425V287.799H316.606ZM322.081 294.09C323.305 294.09 324.34 293.28 324.34 291.876V287.799H323.521V291.876C323.521 292.848 322.855 293.307 322.081 293.307C321.307 293.307 320.641 292.848 320.641 291.876V287.799H319.822V291.876C319.822 293.28 320.857 294.09 322.081 294.09ZM329.992 294H330.973L329.326 291.651C330.496 291.534 330.946 290.634 330.946 289.734C330.946 288.771 330.424 287.799 329.074 287.799H326.743V294H327.562V291.66H328.372L329.992 294ZM327.562 288.555H329.092C329.722 288.555 330.127 289.041 330.127 289.734C330.127 290.436 329.767 290.913 328.858 290.913H327.562V288.555ZM334.839 294.09C336.126 294.09 336.909 293.217 336.909 292.254C336.909 291.372 336.279 290.796 335.226 290.535L334.416 290.337C333.588 290.139 333.516 289.689 333.516 289.473C333.516 288.861 334.092 288.483 334.713 288.483C335.379 288.483 335.892 288.906 335.892 289.527H336.702C336.702 288.42 335.829 287.727 334.74 287.727C333.66 287.727 332.697 288.411 332.697 289.482C332.697 289.986 332.904 290.76 334.218 291.075L335.019 291.273C335.541 291.408 336.09 291.678 336.09 292.281C336.09 292.83 335.649 293.334 334.839 293.334C334.011 293.334 333.489 292.776 333.462 292.227H332.652C332.661 293.19 333.534 294.09 334.839 294.09Z" fill="#6B79B3" />
                <path class="days day-5" d="M381.298 288.555V287.799H377.689V294H378.508V291.336H380.722V290.571H378.508V288.555H381.298ZM386.434 294H387.415L385.768 291.651C386.938 291.534 387.388 290.634 387.388 289.734C387.388 288.771 386.866 287.799 385.516 287.799H383.185V294H384.004V291.66H384.814L386.434 294ZM384.004 288.555H385.534C386.164 288.555 386.569 289.041 386.569 289.734C386.569 290.436 386.209 290.913 385.3 290.913H384.004V288.555ZM389.499 294H390.318V287.799H389.499V294Z" fill="#6B79B3" />
                <rect class="bar size-40" x="118" y="280" width="8" height="40" rx="4" fill="#185ADC" />
                <rect class="bar size-110" x="130" y="280" width="8" height="116" rx="4" fill="#29C1E3" />
                <rect class="bar size-50" x="142" y="280" width="8" height="56" rx="4" fill="#794CC6" />
                <rect class="bar size-20" x="180" y="280" width="8" height="16" rx="4" fill="#185ADC" />
                <rect class="bar size-80" x="192" y="280" width="8" height="80" rx="4" fill="#29C1E3" />
                <rect class="bar size-40" x="204" y="280" width="8" height="40" rx="4" fill="#794CC6" />
                <rect class="bar size-10" x="242" y="280" width="8" height="8" rx="4" fill="#185ADC" />
                <rect class="bar size-40" x="254" y="280" width="8" height="40" rx="4" fill="#29C1E3" />
                <rect class="bar size-70" x="266" y="280" width="8" height="64" rx="4" fill="#794CC6" />
                <rect class="bar size-10" x="305" y="280" width="8" height="12" rx="4" fill="#185ADC" />
                <rect class="bar size-50" x="317" y="280" width="8" height="48" rx="4" fill="#29C1E3" />
                <rect class="bar size-40" x="329" y="280" width="8" height="26" rx="4" fill="#794CC6" />
                <rect class="bar size-10" x="368" y="280" width="8" height="48" rx="4" fill="#185ADC" />
                <rect class="bar size-90" x="380" y="280" width="8" height="90" rx="4" fill="#29C1E3" />
                <rect class="bar size-70" x="392" y="280" width="8" height="64" rx="4" fill="#794CC6" />
                <g class="select sele-1">
                    <rect x="268.5" y="122.5" width="139" height="31" rx="5.5" fill="white" />
                    <path d="M285.152 142H288.356C290.708 142 292.088 140.224 292.088 137.884C292.088 135.532 290.708 133.732 288.356 133.732H285.152V142ZM286.244 140.992V134.74H288.356C290.096 134.74 290.996 136.12 290.996 137.884C290.996 139.648 290.096 140.992 288.356 140.992H286.244ZM298.297 136.396V137.272C297.925 136.612 297.133 136.276 296.293 136.276C294.757 136.276 293.497 137.416 293.497 139.192C293.497 140.956 294.769 142.12 296.305 142.12C297.109 142.12 297.925 141.76 298.297 141.112V142H299.341V136.396H298.297ZM296.389 141.136C295.369 141.136 294.553 140.296 294.553 139.18C294.553 138.052 295.369 137.26 296.389 137.26C297.313 137.26 298.297 137.968 298.297 139.18C298.297 140.38 297.397 141.136 296.389 141.136ZM304.108 136.396H302.896V134.272H301.852V136.396H300.844V137.296H301.852V142H302.896V137.296H304.108V136.396ZM309.836 136.396V137.272C309.464 136.612 308.672 136.276 307.832 136.276C306.296 136.276 305.036 137.416 305.036 139.192C305.036 140.956 306.308 142.12 307.844 142.12C308.648 142.12 309.464 141.76 309.836 141.112V142H310.88V136.396H309.836ZM307.928 141.136C306.908 141.136 306.092 140.296 306.092 139.18C306.092 138.052 306.908 137.26 307.928 137.26C308.852 137.26 309.836 137.968 309.836 139.18C309.836 140.38 308.936 141.136 307.928 141.136ZM320.816 142H322.124L319.928 138.868C321.488 138.712 322.088 137.512 322.088 136.312C322.088 135.028 321.392 133.732 319.592 133.732H316.484V142H317.576V138.88H318.656L320.816 142ZM317.576 134.74H319.616C320.456 134.74 320.996 135.388 320.996 136.312C320.996 137.248 320.516 137.884 319.304 137.884H317.576V134.74ZM326.245 142.12C327.841 142.12 329.185 140.956 329.185 139.18C329.185 137.404 327.841 136.276 326.245 136.276C324.649 136.276 323.317 137.404 323.317 139.18C323.317 140.956 324.649 142.12 326.245 142.12ZM326.245 141.136C325.225 141.136 324.373 140.344 324.373 139.18C324.373 138.028 325.225 137.26 326.245 137.26C327.277 137.26 328.141 138.028 328.141 139.18C328.141 140.344 327.277 141.136 326.245 141.136ZM333.433 142.12C335.029 142.12 336.373 140.956 336.373 139.18C336.373 137.404 335.029 136.276 333.433 136.276C331.837 136.276 330.505 137.404 330.505 139.18C330.505 140.956 331.837 142.12 333.433 142.12ZM333.433 141.136C332.413 141.136 331.561 140.344 331.561 139.18C331.561 138.028 332.413 137.26 333.433 137.26C334.465 137.26 335.329 138.028 335.329 139.18C335.329 140.344 334.465 141.136 333.433 141.136ZM344.724 136.276C344.16 136.276 343.272 136.444 342.768 137.44C342.444 136.696 341.736 136.276 340.92 136.276C340.128 136.276 339.408 136.648 339.12 137.248V136.396H338.076V142H339.12V138.964C339.12 137.776 339.912 137.284 340.704 137.284C341.448 137.284 341.964 137.872 341.964 138.82V142H343.008V139.144L343.02 139.192C342.924 138.112 343.524 137.272 344.52 137.284C345.336 137.284 345.852 137.884 345.852 138.82V142H346.896V138.76C346.896 137.188 346.128 136.276 344.724 136.276Z" fill="#414E81" />
                    <path fill-rule="evenodd" clip-rule="evenodd" d="M381.242 136.277C380.948 135.988 380.473 135.988 380.179 136.277C379.887 136.568 379.887 137.04 380.179 137.331L384.469 141.583C384.762 141.873 385.238 141.873 385.531 141.583L389.821 137.331C390.113 137.04 390.113 136.568 389.821 136.277C389.528 135.988 389.052 135.988 388.758 136.277L384.998 140.006L381.242 136.277Z" fill="#414E81" />
                    <rect x="268.5" y="122.5" width="139" height="31" rx="5.5" stroke="#D5DCF6" />
                </g>
                <g class="select sele-2">
                    <rect x="268.5" y="86.5" width="139" height="31" rx="5.5" fill="white" />
                    <path d="M290.06 96.4801H289.1V94.5601H287.66V96.4801H283.34V94.5601H281.9V96.4801H280.94C279.482 96.4801 278.3 97.6623 278.3 99.1201V106.8C278.3 108.258 279.482 109.44 280.94 109.44H290.06C291.518 109.44 292.7 108.258 292.7 106.8V99.1201C292.7 97.6623 291.518 96.4801 290.06 96.4801ZM280.94 97.9201H281.9V99.8401H283.34V97.9201H287.66V99.8401H289.1V97.9201H290.06C290.378 97.9201 290.683 98.0466 290.908 98.2716C291.133 98.4966 291.26 98.8022 291.26 99.1201V104.4H279.74V99.1201C279.74 98.4573 280.277 97.9201 280.94 97.9201ZM290.06 108H280.94C280.277 108 279.74 107.463 279.74 106.8V105.84H291.26V106.8C291.26 107.118 291.133 107.424 290.908 107.649C290.684 107.874 290.378 108 290.06 108Z" fill="#414E81" />
                    <path d="M312.072 105L311.052 96.732H310.068L307.128 102.864L304.176 96.732H303.192L302.184 105H303.252L304.008 98.7L306.66 104.1H307.608L310.236 98.7L311.004 105H312.072ZM318.328 99.396V100.272C317.956 99.612 317.164 99.276 316.324 99.276C314.788 99.276 313.528 100.416 313.528 102.192C313.528 103.956 314.8 105.12 316.336 105.12C317.14 105.12 317.956 104.76 318.328 104.112V105H319.372V99.396H318.328ZM316.42 104.136C315.4 104.136 314.584 103.296 314.584 102.18C314.584 101.052 315.4 100.26 316.42 100.26C317.344 100.26 318.328 100.968 318.328 102.18C318.328 103.38 317.428 104.136 316.42 104.136ZM325.279 99.396L323.563 103.524L321.871 99.396H320.743L322.987 104.844L321.823 107.724H322.927L326.407 99.396H325.279ZM334.358 100.788C334.97 100.5 335.342 99.888 335.342 99.144C335.342 97.884 334.43 97.056 333.062 97.056C332.174 97.056 331.322 97.512 330.926 98.196L331.646 98.796C331.946 98.34 332.498 98.052 333.038 98.052C333.794 98.052 334.298 98.496 334.298 99.168C334.298 99.876 333.758 100.368 332.93 100.368H332.186V101.268H333.002C333.974 101.268 334.67 101.856 334.67 102.744C334.67 103.572 333.95 104.124 332.966 104.124C332.294 104.124 331.682 103.692 331.334 102.984L330.47 103.476C330.938 104.496 331.898 105.108 333.002 105.108C334.598 105.108 335.726 104.148 335.726 102.708C335.726 101.784 335.174 101.052 334.358 100.788ZM339.617 97.056L336.941 98.256V99.264L338.609 98.58V105H339.653V97.056H339.617ZM345.164 102.648H350.6V101.748H345.164V102.648ZM354.745 107.796C356.605 107.796 357.301 106.56 357.301 105.12V96.732H356.209V105.12C356.209 105.996 355.813 106.74 354.745 106.74C354.649 106.74 354.157 106.704 353.977 106.644L353.869 107.664C354.145 107.724 354.529 107.796 354.745 107.796ZM363.647 99.396V102.432C363.635 103.644 362.699 104.088 361.919 104.088C361.139 104.088 360.575 103.512 360.575 102.576V99.396H359.531V102.636C359.519 104.208 360.383 105.12 361.787 105.12C362.411 105.12 363.311 104.82 363.647 104.124V105H364.691V99.396H363.647ZM369.66 99.276C369.048 99.276 368.136 99.564 367.8 100.248V99.396H366.756V105H367.8V101.964C367.8 100.752 368.736 100.308 369.516 100.308C370.296 100.308 370.872 100.884 370.872 101.82V105H371.916V101.76C371.928 100.188 371.052 99.276 369.66 99.276ZM379.833 105.12C382.089 105.12 382.677 103.308 382.677 101.1C382.677 98.868 382.089 97.056 379.833 97.056C377.577 97.056 376.989 98.868 376.989 101.1C376.989 103.308 377.577 105.12 379.833 105.12ZM379.833 104.136C378.393 104.136 378.045 102.732 378.045 101.1C378.045 99.444 378.393 98.052 379.833 98.052C381.273 98.052 381.633 99.444 381.633 101.1C381.633 102.732 381.273 104.136 379.833 104.136ZM389.945 102.396H388.829V97.152H388.649L383.777 103.152V103.38H387.785V105H388.829V103.38H389.945V102.396ZM385.529 102.396L387.785 99.696V102.396H385.529Z" fill="#414E81" />
                    <rect x="268.5" y="86.5" width="139" height="31" rx="5.5" stroke="#D5DCF6" />
                </g>
                <path class="title" d="M120.432 107H122.376L117.696 94.598H115.716L111.018 107H112.962L114.114 103.868H119.262L120.432 107ZM114.708 102.248L116.688 96.902L118.668 102.248H114.708ZM127.915 107.162C129.283 107.162 130.453 106.604 131.191 105.722L130.021 104.624C129.535 105.164 128.797 105.506 127.951 105.506C126.385 105.506 125.143 104.39 125.143 102.788C125.143 101.186 126.385 100.07 127.951 100.07C128.797 100.07 129.535 100.412 130.021 100.952L131.191 99.854C130.453 98.972 129.283 98.414 127.915 98.414C125.485 98.414 123.379 100.124 123.379 102.788C123.379 105.452 125.485 107.162 127.915 107.162ZM137.611 98.594H135.811V95.444H134.047V98.594H132.535V100.07H134.047V107H135.811V100.07H137.611V98.594ZM140.419 96.668C141.085 96.668 141.625 96.182 141.625 95.534C141.625 94.886 141.085 94.4 140.419 94.4C139.771 94.4 139.213 94.886 139.213 95.534C139.213 96.182 139.771 96.668 140.419 96.668ZM139.537 107H141.301V98.594H139.537V107ZM149.887 98.594L147.439 104.714L144.991 98.594H143.101L146.611 107H148.285L151.795 98.594H149.887ZM154.454 96.668C155.12 96.668 155.66 96.182 155.66 95.534C155.66 94.886 155.12 94.4 154.454 94.4C153.806 94.4 153.248 94.886 153.248 95.534C153.248 96.182 153.806 96.668 154.454 96.668ZM153.572 107H155.336V98.594H153.572V107ZM162.5 98.594H160.7V95.444H158.936V98.594H157.424V100.07H158.936V107H160.7V100.07H162.5V98.594ZM170.095 98.594L167.683 104.444L165.271 98.594H163.363L166.711 106.64L164.911 111.086H166.783L172.003 98.594H170.095Z" fill="#2B3664" />
                <path class="sub-title" d="M119.15 118.11L117.22 124L115.81 119.11H115.24L113.83 123.97L111.9 118.11H111.2L113.53 125H114.15L115.52 120.22L116.9 125H117.52L119.85 118.11H119.15ZM125.014 122.65C125.014 121.17 124.044 120.23 122.714 120.23C121.394 120.23 120.334 121.17 120.334 122.65C120.334 124.13 121.394 125.1 122.714 125.1C123.594 125.1 124.394 124.68 124.804 123.93L124.254 123.69C123.944 124.2 123.374 124.49 122.734 124.49C121.794 124.49 121.094 123.93 120.984 122.93H125.004C125.014 122.84 125.014 122.74 125.014 122.65ZM120.994 122.38C121.114 121.38 121.794 120.84 122.714 120.84C123.624 120.84 124.294 121.41 124.384 122.38H120.994ZM130.869 122.65C130.869 121.17 129.899 120.23 128.569 120.23C127.249 120.23 126.189 121.17 126.189 122.65C126.189 124.13 127.249 125.1 128.569 125.1C129.449 125.1 130.249 124.68 130.659 123.93L130.109 123.69C129.799 124.2 129.229 124.49 128.589 124.49C127.649 124.49 126.949 123.93 126.839 122.93H130.859C130.869 122.84 130.869 122.74 130.869 122.65ZM126.849 122.38C126.969 121.38 127.649 120.84 128.569 120.84C129.479 120.84 130.149 121.41 130.239 122.38H126.849ZM136.234 125L133.644 122.36L135.644 120.33H134.754L133.004 122.12V117.7H132.364V125H133.004V122.6L135.364 125H136.234ZM140.841 117.7V121.23C140.491 120.6 139.771 120.23 138.981 120.23C137.671 120.23 136.611 121.24 136.611 122.66C136.611 124.08 137.681 125.1 138.981 125.1C139.761 125.1 140.491 124.73 140.841 124.09V125H141.481V117.7H140.841ZM139.031 124.49C138.051 124.49 137.251 123.69 137.251 122.65C137.251 121.62 138.051 120.84 139.031 120.84C139.961 120.84 140.841 121.55 140.841 122.68C140.841 123.76 140.001 124.49 139.031 124.49ZM147.243 120.33V121.23C146.893 120.6 146.173 120.23 145.383 120.23C144.073 120.23 143.013 121.24 143.013 122.66C143.013 124.08 144.083 125.1 145.383 125.1C146.163 125.1 146.893 124.73 147.243 124.09V125H147.883V120.33H147.243ZM145.433 124.49C144.453 124.49 143.653 123.69 143.653 122.65C143.653 121.62 144.453 120.84 145.433 120.84C146.363 120.84 147.243 121.55 147.243 122.68C147.243 123.76 146.403 124.49 145.433 124.49ZM153.046 120.33L151.436 124.15L149.846 120.33H149.156L151.086 124.94L150.126 127.27H150.806L153.736 120.33H153.046ZM156.169 125.1C157.139 125.1 157.889 124.57 157.889 123.74C157.889 123.2 157.609 122.65 156.699 122.43L156.009 122.26C155.669 122.18 155.289 121.99 155.289 121.55C155.289 121.11 155.659 120.8 156.199 120.8C156.659 120.8 157.069 121.08 157.099 121.5H157.719C157.689 120.66 156.969 120.23 156.189 120.23C155.299 120.23 154.649 120.78 154.649 121.54C154.649 122.32 155.179 122.66 155.839 122.82L156.509 122.98C156.989 123.1 157.249 123.35 157.249 123.73C157.249 124.2 156.839 124.53 156.169 124.53C155.489 124.53 155.129 124.13 155.059 123.74H154.469C154.549 124.63 155.359 125.1 156.169 125.1Z" fill="#2B3664" />
            </g>
            <defs>
                <filter id="filter_activity" x="0" y="0" width="520" height="400" filterUnits="userSpaceOnUse" color-interpolation-filters="sRGB">
                    <feFlood flood-opacity="0" result="BackgroundImageFix" />
                    <feColorMatrix in="SourceAlpha" type="matrix" values="0 0 0 0 0 0 0 0 0 0 0 0 0 0 0 0 0 0 127 0" />
                    <feOffset dy="8" />
                    <feGaussianBlur stdDeviation="30" />
                    <feColorMatrix type="matrix" values="0 0 0 0 0.254902 0 0 0 0 0.305882 0 0 0 0 0.505882 0 0 0 0.2 0" />
                    <feBlend mode="normal" in2="BackgroundImageFix" result="effect1_dropShadow" />
                    <feBlend mode="normal" in="SourceGraphic" in2="effect1_dropShadow" result="shape" />
                </filter>
            </defs>
        </svg>