 <svg class="compliance" width="420" height="446" viewBox="0 0 420 446" fill="none" xmlns="http://www.w3.org/2000/svg">
            <g filter="url(#filter0_d2)">
                <rect x="60" y="52" width="300" height="326" fill="white" />
                <g class="bottom-link">
                    <g filter="url(#filter1_d)">
                        <rect x="60" y="330" width="300" height="48" fill="white" />
                    </g>
                    <path d="M181.752 357.12C184.128 357.12 185.688 355.752 185.688 352.812H181.956V353.868H184.332C184.332 353.94 184.32 354.012 184.308 354.072C184.128 355.236 183.096 355.98 181.752 355.98C180.084 355.98 178.8 354.576 178.8 352.884C178.8 351.18 180.084 349.776 181.752 349.776C182.52 349.776 183.228 350.088 183.744 350.568L184.608 349.776C183.888 349.068 182.88 348.636 181.752 348.636C179.4 348.636 177.564 350.532 177.564 352.884C177.564 355.224 179.4 357.12 181.752 357.12ZM189.753 357.12C191.349 357.12 192.705 355.956 192.705 354.18C192.705 352.404 191.349 351.276 189.753 351.276C188.157 351.276 186.813 352.404 186.813 354.18C186.813 355.956 188.157 357.12 189.753 357.12ZM189.753 356.004C188.793 356.004 187.989 355.272 187.989 354.18C187.989 353.1 188.793 352.38 189.753 352.38C190.713 352.38 191.529 353.1 191.529 354.18C191.529 355.272 190.713 356.004 189.753 356.004ZM200.431 351.396H199.231V349.296H198.055V351.396H197.047V352.38H198.055V357H199.231V352.38H200.431V351.396ZM204.272 357.12C205.868 357.12 207.224 355.956 207.224 354.18C207.224 352.404 205.868 351.276 204.272 351.276C202.676 351.276 201.332 352.404 201.332 354.18C201.332 355.956 202.676 357.12 204.272 357.12ZM204.272 356.004C203.312 356.004 202.508 355.272 202.508 354.18C202.508 353.1 203.312 352.38 204.272 352.38C205.232 352.38 206.048 353.1 206.048 354.18C206.048 355.272 205.232 356.004 204.272 356.004ZM214.77 357.108C215.682 357.108 216.462 356.736 216.954 356.148L216.174 355.416C215.85 355.776 215.358 356.004 214.794 356.004C213.75 356.004 212.922 355.26 212.922 354.192C212.922 353.124 213.75 352.38 214.794 352.38C215.358 352.38 215.85 352.608 216.174 352.968L216.954 352.236C216.462 351.648 215.682 351.276 214.77 351.276C213.15 351.276 211.746 352.416 211.746 354.192C211.746 355.968 213.15 357.108 214.77 357.108ZM221.474 351.276C220.874 351.276 219.974 351.564 219.65 352.248V348.36H218.474V357H219.65V354.012C219.65 352.848 220.538 352.44 221.27 352.44C221.99 352.44 222.542 352.968 222.542 353.88V357H223.718V353.796C223.73 352.2 222.89 351.276 221.474 351.276ZM230.989 354.168C230.989 352.404 229.777 351.276 228.181 351.276C226.585 351.276 225.289 352.404 225.289 354.18C225.289 355.956 226.561 357.12 228.181 357.12C229.249 357.12 230.257 356.64 230.749 355.704L229.813 355.236C229.501 355.752 228.889 356.028 228.241 356.028C227.329 356.028 226.657 355.584 226.501 354.672H230.965C230.977 354.492 230.989 354.324 230.989 354.168ZM226.513 353.724C226.681 352.8 227.329 352.368 228.193 352.368C229.057 352.368 229.705 352.848 229.813 353.724H226.513ZM235.267 357.108C236.179 357.108 236.959 356.736 237.451 356.148L236.671 355.416C236.347 355.776 235.855 356.004 235.291 356.004C234.247 356.004 233.419 355.26 233.419 354.192C233.419 353.124 234.247 352.38 235.291 352.38C235.855 352.38 236.347 352.608 236.671 352.968L237.451 352.236C236.959 351.648 236.179 351.276 235.267 351.276C233.647 351.276 232.243 352.416 232.243 354.192C232.243 355.968 233.647 357.108 235.267 357.108ZM244.13 357L241.214 353.82L243.578 351.396H241.982L240.146 353.304V348.36H238.97V357H240.146V354.336L242.594 357H244.13ZM244.55 354.744H248.738V353.628H244.55V354.744ZM251.237 350.112C251.681 350.112 252.041 349.788 252.041 349.356C252.041 348.924 251.681 348.6 251.237 348.6C250.805 348.6 250.433 348.924 250.433 349.356C250.433 349.788 250.805 350.112 251.237 350.112ZM250.649 357H251.825V351.396H250.649V357ZM256.841 351.276C256.241 351.276 255.341 351.576 255.017 352.26V351.396H253.841V357H255.017V354.012C255.017 352.848 255.905 352.44 256.637 352.44C257.357 352.44 257.909 352.968 257.909 353.88V357H259.085V353.796C259.097 352.2 258.257 351.276 256.841 351.276ZM267.099 351.396H265.899V349.296H264.723V351.396H263.715V352.38H264.723V357H265.899V352.38H267.099V351.396ZM271.226 351.276C270.506 351.276 269.942 351.672 269.654 352.656V351.396H268.466V357H269.654V354.984C269.654 353.472 270.134 352.404 271.154 352.404C271.382 352.404 271.67 352.452 271.982 352.596L272.186 351.48C272.006 351.372 271.61 351.276 271.226 351.276ZM277.654 351.396V352.224C277.282 351.588 276.502 351.276 275.71 351.276C274.198 351.276 272.938 352.404 272.938 354.192C272.938 355.968 274.198 357.12 275.722 357.12C276.478 357.12 277.282 356.796 277.654 356.16V357H278.83V351.396H277.654ZM275.854 356.004C274.894 356.004 274.114 355.224 274.114 354.18C274.114 353.124 274.894 352.392 275.854 352.392C276.718 352.392 277.642 353.052 277.642 354.18C277.642 355.308 276.802 356.004 275.854 356.004ZM283.501 357.108C284.413 357.108 285.193 356.736 285.685 356.148L284.905 355.416C284.581 355.776 284.089 356.004 283.525 356.004C282.481 356.004 281.653 355.26 281.653 354.192C281.653 353.124 282.481 352.38 283.525 352.38C284.089 352.38 284.581 352.608 284.905 352.968L285.685 352.236C285.193 351.648 284.413 351.276 283.501 351.276C281.881 351.276 280.477 352.416 280.477 354.192C280.477 355.968 281.881 357.108 283.501 357.108ZM292.364 357L289.448 353.82L291.812 351.396H290.216L288.38 353.304V348.36H287.204V357H288.38V354.336L290.828 357H292.364ZM298.384 354.168C298.384 352.404 297.172 351.276 295.576 351.276C293.98 351.276 292.684 352.404 292.684 354.18C292.684 355.956 293.956 357.12 295.576 357.12C296.644 357.12 297.652 356.64 298.144 355.704L297.208 355.236C296.896 355.752 296.284 356.028 295.636 356.028C294.724 356.028 294.052 355.584 293.896 354.672H298.36C298.372 354.492 298.384 354.324 298.384 354.168ZM293.908 353.724C294.076 352.8 294.724 352.368 295.588 352.368C296.452 352.368 297.1 352.848 297.208 353.724H293.908ZM302.757 351.276C302.037 351.276 301.473 351.672 301.185 352.656V351.396H299.997V357H301.185V354.984C301.185 353.472 301.665 352.404 302.685 352.404C302.913 352.404 303.201 352.452 303.513 352.596L303.717 351.48C303.537 351.372 303.141 351.276 302.757 351.276Z" fill="#185ADC" />
                    <path fill-rule="evenodd" clip-rule="evenodd" d="M317.584 357.729C317.281 358.019 317.281 358.492 317.584 358.782C317.888 359.073 318.381 359.073 318.685 358.782L323.13 354.527C323.433 354.236 323.433 353.764 323.13 353.473L318.685 349.218C318.381 348.927 317.888 348.927 317.584 349.218C317.281 349.508 317.281 349.981 317.584 350.271L321.481 354.002L317.584 357.729Z" fill="#185ADC" />
                </g>
                <g class="button-blue">
                    <rect x="140" y="250" width="141" height="40" rx="6" fill="#414E81" />
                    <path d="M169.484 273H170.792L168.596 269.868C170.156 269.712 170.756 268.512 170.756 267.312C170.756 266.028 170.06 264.732 168.26 264.732H165.152V273H166.244V269.88H167.324L169.484 273ZM166.244 265.74H168.284C169.124 265.74 169.664 266.388 169.664 267.312C169.664 268.248 169.184 268.884 167.972 268.884H166.244V265.74ZM177.649 270.18C177.649 268.404 176.461 267.276 174.865 267.276C173.269 267.276 171.985 268.404 171.985 270.18C171.985 271.956 173.269 273.12 174.865 273.12C175.945 273.12 176.953 272.616 177.445 271.644L176.533 271.284C176.221 271.848 175.585 272.136 174.901 272.136C173.941 272.136 173.221 271.644 173.065 270.648H177.625C177.637 270.492 177.649 270.336 177.649 270.18ZM173.077 269.748C173.245 268.74 173.917 268.26 174.865 268.26C175.789 268.26 176.473 268.788 176.605 269.748H173.077ZM182.986 267.396L181.27 271.668L179.542 267.396H178.426L180.754 273H181.774L184.114 267.396H182.986ZM185.971 266.028C186.379 266.028 186.715 265.728 186.715 265.332C186.715 264.936 186.379 264.636 185.971 264.636C185.575 264.636 185.239 264.936 185.239 265.332C185.239 265.728 185.575 266.028 185.971 266.028ZM185.455 273H186.499V267.396H185.455V273ZM193.844 270.18C193.844 268.404 192.656 267.276 191.06 267.276C189.464 267.276 188.18 268.404 188.18 270.18C188.18 271.956 189.464 273.12 191.06 273.12C192.14 273.12 193.148 272.616 193.64 271.644L192.728 271.284C192.416 271.848 191.78 272.136 191.096 272.136C190.136 272.136 189.416 271.644 189.26 270.648H193.82C193.832 270.492 193.844 270.336 193.844 270.18ZM189.272 269.748C189.44 268.74 190.112 268.26 191.06 268.26C191.984 268.26 192.668 268.788 192.8 269.748H189.272ZM202.517 267.396L201.089 271.38L199.649 267.396H198.629L197.201 271.38L195.773 267.396H194.645L196.781 273H197.645L199.133 268.836L200.681 273H201.557L203.645 267.396H202.517ZM211.311 267.276C210.507 267.276 209.691 267.636 209.319 268.284V267.396H208.275V275.724H209.319V272.124C209.691 272.784 210.483 273.12 211.323 273.12C212.859 273.12 214.119 271.98 214.119 270.204C214.119 268.44 212.847 267.276 211.311 267.276ZM211.215 272.136C210.303 272.136 209.319 271.428 209.319 270.216C209.319 269.016 210.219 268.26 211.215 268.26C212.247 268.26 213.063 269.1 213.063 270.216C213.063 271.344 212.247 272.136 211.215 272.136ZM218.454 267.276C217.71 267.276 217.17 267.684 216.882 268.668V267.396H215.826V273H216.882V270.948C216.882 269.472 217.326 268.284 218.442 268.284C218.658 268.284 218.958 268.332 219.258 268.476L219.426 267.492C219.258 267.384 218.85 267.276 218.454 267.276ZM223.097 273.12C224.693 273.12 226.037 271.956 226.037 270.18C226.037 268.404 224.693 267.276 223.097 267.276C221.501 267.276 220.169 268.404 220.169 270.18C220.169 271.956 221.501 273.12 223.097 273.12ZM223.097 272.136C222.077 272.136 221.225 271.344 221.225 270.18C221.225 269.028 222.077 268.26 223.097 268.26C224.129 268.26 224.993 269.028 224.993 270.18C224.993 271.344 224.129 272.136 223.097 272.136ZM232.168 267.396V268.272C231.796 267.624 231.004 267.276 230.164 267.276C228.628 267.276 227.368 268.416 227.368 270.192C227.368 271.956 228.64 273.12 230.176 273.12C230.98 273.12 231.796 272.76 232.168 272.112V272.22C232.168 274.116 231.4 274.812 230.164 274.812C229.54 274.812 228.88 274.464 228.532 273.828L227.644 274.296C228.196 275.28 229.144 275.796 230.164 275.796C232.012 275.796 233.212 274.8 233.212 272.148V267.396H232.168ZM230.26 272.136C229.24 272.136 228.424 271.296 228.424 270.18C228.424 269.052 229.24 268.26 230.26 268.26C231.184 268.26 232.168 268.968 232.168 270.18C232.168 271.38 231.268 272.136 230.26 272.136ZM237.919 267.276C237.175 267.276 236.635 267.684 236.347 268.668V267.396H235.291V273H236.347V270.948C236.347 269.472 236.791 268.284 237.907 268.284C238.123 268.284 238.423 268.332 238.723 268.476L238.891 267.492C238.723 267.384 238.315 267.276 237.919 267.276ZM245.297 270.18C245.297 268.404 244.109 267.276 242.513 267.276C240.917 267.276 239.633 268.404 239.633 270.18C239.633 271.956 240.917 273.12 242.513 273.12C243.593 273.12 244.601 272.616 245.093 271.644L244.181 271.284C243.869 271.848 243.233 272.136 242.549 272.136C241.589 272.136 240.869 271.644 240.713 270.648H245.273C245.285 270.492 245.297 270.336 245.297 270.18ZM240.725 269.748C240.893 268.74 241.565 268.26 242.513 268.26C243.437 268.26 244.121 268.788 244.253 269.748H240.725ZM248.603 273.12C249.767 273.12 250.775 272.484 250.775 271.44C250.775 270.804 250.475 270.108 249.311 269.82L248.483 269.616C248.123 269.532 247.763 269.328 247.763 268.944C247.763 268.512 248.123 268.188 248.663 268.188C249.107 268.188 249.551 268.476 249.563 268.908H250.571C250.571 267.78 249.587 267.276 248.639 267.276C247.511 267.276 246.719 267.984 246.719 268.908C246.719 269.808 247.259 270.264 248.195 270.516L248.963 270.696C249.407 270.792 249.731 271.008 249.731 271.428C249.731 271.884 249.311 272.208 248.603 272.208C247.919 272.208 247.499 271.812 247.487 271.332H246.515C246.563 272.484 247.595 273.12 248.603 273.12ZM254.079 273.12C255.243 273.12 256.251 272.484 256.251 271.44C256.251 270.804 255.951 270.108 254.787 269.82L253.959 269.616C253.599 269.532 253.239 269.328 253.239 268.944C253.239 268.512 253.599 268.188 254.139 268.188C254.583 268.188 255.027 268.476 255.039 268.908H256.047C256.047 267.78 255.063 267.276 254.115 267.276C252.987 267.276 252.195 267.984 252.195 268.908C252.195 269.808 252.735 270.264 253.671 270.516L254.439 270.696C254.883 270.792 255.207 271.008 255.207 271.428C255.207 271.884 254.787 272.208 254.079 272.208C253.395 272.208 252.975 271.812 252.963 271.332H251.991C252.039 272.484 253.071 273.12 254.079 273.12Z" fill="white" />
                </g>
                <path class="text-step" d="M127.559 163.106C126.663 163.106 126.005 163.442 125.571 163.904C125.627 162.448 126.439 161.412 127.601 161.412C128.189 161.412 128.763 161.72 129.043 162.35L130.527 161.524C129.967 160.278 128.777 159.704 127.587 159.704C125.011 159.704 123.709 162.014 123.709 164.73C123.709 167.474 125.109 169.126 127.251 169.126C129.309 169.126 130.639 167.796 130.639 166.046C130.639 164.45 129.407 163.106 127.559 163.106ZM127.251 167.418C126.355 167.404 125.711 166.816 125.711 166.004C125.739 165.22 126.397 164.66 127.307 164.66C128.175 164.674 128.791 165.234 128.791 166.032C128.791 166.844 128.147 167.418 127.251 167.418ZM139.561 169.14C141.423 169.14 142.991 167.782 142.991 165.71C142.991 163.638 141.423 162.322 139.561 162.322C137.699 162.322 136.145 163.638 136.145 165.71C136.145 167.782 137.699 169.14 139.561 169.14ZM139.561 168.286C138.175 168.286 137.041 167.264 137.041 165.71C137.041 164.17 138.175 163.176 139.561 163.176C140.933 163.176 142.095 164.17 142.095 165.71C142.095 167.264 140.933 168.286 139.561 168.286ZM149.848 162.462V166.088C149.834 167.67 148.714 168.258 147.678 168.258C146.614 168.258 145.83 167.488 145.83 166.228V162.462H144.934V166.27C144.92 168.076 145.998 169.14 147.58 169.14C148.392 169.14 149.456 168.776 149.848 167.852V169H150.744V162.462H149.848ZM156.067 162.462H154.569V159.858H153.687V162.462H152.497V163.232H153.687V169H154.569V163.232H156.067V162.462ZM164.459 169.14C166.321 169.14 167.889 167.782 167.889 165.71C167.889 163.638 166.321 162.322 164.459 162.322C162.597 162.322 161.043 163.638 161.043 165.71C161.043 167.782 162.597 169.14 164.459 169.14ZM164.459 168.286C163.073 168.286 161.939 167.264 161.939 165.71C161.939 164.17 163.073 163.176 164.459 163.176C165.831 163.176 166.993 164.17 166.993 165.71C166.993 167.264 165.831 168.286 164.459 168.286ZM172.762 159.634H173.252V158.78H172.636C170.928 158.78 170.284 159.97 170.284 161.608V162.462H168.996V163.232H170.284V169H171.18V163.232H172.846V162.462H171.18V161.51C171.18 160.46 171.53 159.634 172.762 159.634ZM182.959 163.848C183.519 163.582 183.981 162.91 183.981 162.056C183.981 160.642 182.735 159.704 181.111 159.704C179.487 159.704 178.241 160.642 178.241 162.056C178.241 162.91 178.703 163.582 179.263 163.848C178.269 164.156 177.541 165.094 177.541 166.256C177.541 167.978 179.123 169.126 181.111 169.126C183.099 169.126 184.667 167.978 184.667 166.256C184.667 165.094 183.953 164.156 182.959 163.848ZM181.111 161.286C181.741 161.286 182.203 161.734 182.203 162.266C182.203 162.798 181.741 163.232 181.111 163.232C180.481 163.232 180.019 162.798 180.019 162.266C180.019 161.734 180.481 161.286 181.111 161.286ZM181.111 167.488C180.145 167.488 179.445 166.886 179.445 166.074C179.445 165.262 180.159 164.66 181.111 164.66C182.063 164.66 182.777 165.248 182.777 166.088C182.777 166.872 182.105 167.488 181.111 167.488ZM192.398 169.14C193.756 169.14 194.806 168.398 194.806 167.236C194.806 166.48 194.414 165.71 193.14 165.402L192.174 165.164C191.698 165.052 191.166 164.786 191.166 164.17C191.166 163.554 191.684 163.12 192.44 163.12C193.084 163.12 193.658 163.512 193.7 164.1H194.568C194.526 162.924 193.518 162.322 192.426 162.322C191.18 162.322 190.27 163.092 190.27 164.156C190.27 165.248 191.012 165.724 191.936 165.948L192.874 166.172C193.546 166.34 193.91 166.69 193.91 167.222C193.91 167.88 193.336 168.342 192.398 168.342C191.446 168.342 190.942 167.782 190.844 167.236H190.018C190.13 168.482 191.264 169.14 192.398 169.14ZM199.63 162.462H198.132V159.858H197.25V162.462H196.06V163.232H197.25V169H198.132V163.232H199.63V162.462ZM207.216 165.71C207.216 163.638 205.858 162.322 203.996 162.322C202.148 162.322 200.664 163.638 200.664 165.71C200.664 167.782 202.148 169.14 203.996 169.14C205.228 169.14 206.348 168.552 206.922 167.502L206.152 167.166C205.718 167.88 204.92 168.286 204.024 168.286C202.708 168.286 201.728 167.502 201.574 166.102H207.202C207.216 165.976 207.216 165.836 207.216 165.71ZM201.588 165.332C201.756 163.932 202.708 163.176 203.996 163.176C205.27 163.176 206.208 163.974 206.334 165.332H201.588ZM212.71 162.322C211.618 162.322 210.582 162.854 210.106 163.75V162.462H209.21V172.178H210.106V167.726C210.596 168.622 211.604 169.14 212.71 169.14C214.544 169.14 216.028 167.726 216.028 165.738C216.028 163.75 214.544 162.322 212.71 162.322ZM212.64 168.286C211.338 168.286 210.106 167.292 210.106 165.71C210.106 164.198 211.282 163.176 212.64 163.176C214.026 163.176 215.146 164.296 215.146 165.752C215.146 167.194 214.026 168.286 212.64 168.286ZM219.921 169.14C221.279 169.14 222.329 168.398 222.329 167.236C222.329 166.48 221.937 165.71 220.663 165.402L219.697 165.164C219.221 165.052 218.689 164.786 218.689 164.17C218.689 163.554 219.207 163.12 219.963 163.12C220.607 163.12 221.181 163.512 221.223 164.1H222.091C222.049 162.924 221.041 162.322 219.949 162.322C218.703 162.322 217.793 163.092 217.793 164.156C217.793 165.248 218.535 165.724 219.459 165.948L220.397 166.172C221.069 166.34 221.433 166.69 221.433 167.222C221.433 167.88 220.859 168.342 219.921 168.342C218.969 168.342 218.465 167.782 218.367 167.236H217.541C217.653 168.482 218.787 169.14 219.921 169.14ZM231.249 169.126C232.187 169.126 233.013 168.79 233.601 168.23L233.041 167.628C232.593 168.034 231.977 168.272 231.277 168.272C229.849 168.272 228.687 167.25 228.687 165.724C228.687 164.184 229.849 163.176 231.277 163.176C231.977 163.176 232.593 163.428 233.041 163.834L233.601 163.218C233.013 162.672 232.187 162.322 231.249 162.322C229.387 162.322 227.791 163.652 227.791 165.724C227.791 167.796 229.387 169.126 231.249 169.126ZM238.279 169.14C240.141 169.14 241.709 167.782 241.709 165.71C241.709 163.638 240.141 162.322 238.279 162.322C236.417 162.322 234.863 163.638 234.863 165.71C234.863 167.782 236.417 169.14 238.279 169.14ZM238.279 168.286C236.893 168.286 235.759 167.264 235.759 165.71C235.759 164.17 236.893 163.176 238.279 163.176C239.651 163.176 240.813 164.17 240.813 165.71C240.813 167.264 239.651 168.286 238.279 168.286ZM251.577 162.322C250.779 162.322 249.645 162.588 249.169 163.89C248.805 162.882 247.937 162.322 246.873 162.322C245.907 162.322 244.969 162.77 244.633 163.638V162.462H243.737V169H244.633V165.374C244.661 163.806 245.669 163.19 246.719 163.19C247.755 163.19 248.511 163.96 248.511 165.234V169H249.393V165.612L249.407 165.668C249.309 164.072 250.205 163.176 251.437 163.19C252.515 163.19 253.271 163.974 253.271 165.234V169H254.167V165.192C254.167 163.386 253.159 162.322 251.577 162.322ZM260.079 162.322C258.987 162.322 257.951 162.854 257.475 163.75V162.462H256.579V172.178H257.475V167.726C257.965 168.622 258.973 169.14 260.079 169.14C261.913 169.14 263.397 167.726 263.397 165.738C263.397 163.75 261.913 162.322 260.079 162.322ZM260.009 168.286C258.707 168.286 257.475 167.292 257.475 165.71C257.475 164.198 258.651 163.176 260.009 163.176C261.395 163.176 262.515 164.296 262.515 165.752C262.515 167.194 261.395 168.286 260.009 168.286ZM265.442 169H266.338V158.78H265.442V169ZM274.927 165.71C274.927 163.638 273.569 162.322 271.707 162.322C269.859 162.322 268.375 163.638 268.375 165.71C268.375 167.782 269.859 169.14 271.707 169.14C272.939 169.14 274.059 168.552 274.633 167.502L273.863 167.166C273.429 167.88 272.631 168.286 271.735 168.286C270.419 168.286 269.439 167.502 269.285 166.102H274.913C274.927 165.976 274.927 165.836 274.927 165.71ZM269.299 165.332C269.467 163.932 270.419 163.176 271.707 163.176C272.981 163.176 273.919 163.974 274.045 165.332H269.299ZM279.653 162.462H278.155V159.858H277.273V162.462H276.083V163.232H277.273V169H278.155V163.232H279.653V162.462ZM287.24 165.71C287.24 163.638 285.882 162.322 284.02 162.322C282.172 162.322 280.688 163.638 280.688 165.71C280.688 167.782 282.172 169.14 284.02 169.14C285.252 169.14 286.372 168.552 286.946 167.502L286.176 167.166C285.742 167.88 284.944 168.286 284.048 168.286C282.732 168.286 281.752 167.502 281.598 166.102H287.226C287.24 165.976 287.24 165.836 287.24 165.71ZM281.612 165.332C281.78 163.932 282.732 163.176 284.02 163.176C285.294 163.176 286.232 163.974 286.358 165.332H281.612ZM294.707 158.78V163.722C294.217 162.84 293.209 162.322 292.103 162.322C290.269 162.322 288.785 163.736 288.785 165.724C288.785 167.712 290.283 169.14 292.103 169.14C293.195 169.14 294.217 168.622 294.707 167.726V169H295.603V158.78H294.707ZM292.173 168.286C290.801 168.286 289.681 167.166 289.681 165.71C289.681 164.268 290.801 163.176 292.173 163.176C293.475 163.176 294.707 164.17 294.707 165.752C294.707 167.264 293.531 168.286 292.173 168.286Z" fill="#2B3664" />
                <g class="progress-bar">
                    <rect x="92" y="198" width="236" height="12" rx="6" fill="#EDF0FD" />
                    <rect class="bar" x="92" y="198" width="177" height="12" rx="6" fill="#2BD4DB" />
                </g>
                <g class="title">
                    <g filter="url(#filter2_d)">
                        <rect x="60" y="52" width="300" height="72" fill="white" />
                    </g>
                    <path d="M101.126 79.598L98.012 84.314L94.952 79.598H91.964L96.77 86.366V92H99.272V86.402L104.096 79.598H101.126ZM107.225 92.162C109.619 92.162 111.743 90.434 111.743 87.788C111.743 85.124 109.619 83.396 107.225 83.396C104.831 83.396 102.707 85.124 102.707 87.788C102.707 90.434 104.831 92.162 107.225 92.162ZM107.225 89.966C106.055 89.966 105.101 89.084 105.101 87.788C105.101 86.474 106.055 85.592 107.225 85.592C108.395 85.592 109.349 86.474 109.349 87.788C109.349 89.084 108.395 89.966 107.225 89.966ZM119.592 83.612V87.914C119.592 89.426 118.548 89.876 117.702 89.876C116.892 89.876 116.1 89.282 116.1 87.968V83.612H113.742V88.22C113.724 90.74 114.876 92.198 117.072 92.198C117.9 92.198 119.232 91.73 119.592 90.632V92H121.95V83.612H119.592ZM129.383 83.396C128.339 83.396 127.385 83.99 126.917 85.394V83.612H124.577V92H126.935V89.12C126.935 86.726 127.763 85.61 128.969 85.61C129.257 85.61 129.671 85.646 130.175 85.916L130.715 83.666C130.337 83.468 129.833 83.396 129.383 83.396ZM146.551 83.396C145.687 83.396 144.391 83.792 143.743 85.016C143.257 83.99 142.285 83.396 141.043 83.396C140.107 83.396 138.919 83.954 138.667 85.106V83.612H136.309V92H138.667V87.626C138.667 86.114 139.531 85.718 140.377 85.718C141.169 85.718 141.853 86.24 141.853 87.554V92H144.211V87.554C144.265 86.294 144.931 85.7 145.867 85.718C146.695 85.718 147.379 86.258 147.379 87.572V92H149.755V87.392C149.755 84.872 148.657 83.396 146.551 83.396ZM156.252 92.162C158.646 92.162 160.77 90.434 160.77 87.788C160.77 85.124 158.646 83.396 156.252 83.396C153.858 83.396 151.734 85.124 151.734 87.788C151.734 90.434 153.858 92.162 156.252 92.162ZM156.252 89.966C155.082 89.966 154.128 89.084 154.128 87.788C154.128 86.474 155.082 85.592 156.252 85.592C157.422 85.592 158.376 86.474 158.376 87.788C158.376 89.084 157.422 89.966 156.252 89.966ZM167.755 83.396C166.927 83.396 165.595 83.882 165.235 85.016V83.612H162.877V92H165.235V87.698C165.235 86.168 166.279 85.718 167.125 85.718C167.935 85.718 168.727 86.312 168.727 87.644V92H171.085V87.392C171.103 84.872 169.951 83.396 167.755 83.396ZM178.449 83.612H176.667V80.534H174.309V83.612H172.779V85.43H174.309V92H176.667V85.43H178.449V83.612ZM185.113 83.396C184.303 83.396 182.953 83.864 182.593 84.926V79.13H180.235V92H182.593V87.698C182.593 86.168 183.637 85.718 184.483 85.718C185.293 85.718 186.085 86.312 186.085 87.644V92H188.443V87.392C188.461 84.872 187.309 83.396 185.113 83.396ZM190.961 92H193.319V79.13H190.961V92ZM201.358 83.612L199.432 88.454L197.452 83.612H194.86L198.172 91.208L196.192 96.122H198.712L203.896 83.612H201.358ZM213.85 92.162C215.38 92.162 216.604 91.46 217.396 90.362L215.632 89.12C215.254 89.642 214.552 89.966 213.868 89.966C212.536 89.966 211.636 89.012 211.636 87.77C211.636 86.546 212.536 85.592 213.868 85.592C214.552 85.592 215.254 85.916 215.632 86.438L217.396 85.196C216.604 84.116 215.38 83.396 213.85 83.396C211.402 83.396 209.242 85.106 209.242 87.77C209.242 90.434 211.402 92.162 213.85 92.162ZM224.209 83.396C223.399 83.396 222.049 83.864 221.689 84.926V79.13H219.331V92H221.689V87.698C221.689 86.168 222.733 85.718 223.579 85.718C224.389 85.718 225.181 86.312 225.181 87.644V92H227.539V87.392C227.557 84.872 226.405 83.396 224.209 83.396ZM238.373 87.662C238.373 85.088 236.411 83.396 234.017 83.396C231.605 83.396 229.553 85.088 229.553 87.806C229.553 90.398 231.443 92.162 234.017 92.162C235.493 92.162 236.969 91.586 237.761 90.524L236.375 89.138C235.871 89.732 235.025 90.074 234.179 90.074C233.045 90.074 232.253 89.534 232.001 88.562H238.337C238.355 88.184 238.373 87.896 238.373 87.662ZM232.001 87.032C232.253 85.898 233.099 85.448 234.053 85.448C235.115 85.448 235.943 86.042 236.015 87.032H232.001ZM244.536 92.162C246.066 92.162 247.29 91.46 248.082 90.362L246.318 89.12C245.94 89.642 245.238 89.966 244.554 89.966C243.222 89.966 242.322 89.012 242.322 87.77C242.322 86.546 243.222 85.592 244.554 85.592C245.238 85.592 245.94 85.916 246.318 86.438L248.082 85.196C247.29 84.116 246.066 83.396 244.536 83.396C242.088 83.396 239.928 85.106 239.928 87.77C239.928 90.434 242.088 92.162 244.536 92.162ZM258.26 92L254.246 87.302L257.522 83.612H254.498L252.374 86.168V79.13H250.016V92H252.374V88.364L255.326 92H258.26ZM258.719 88.742H265.055V86.654H258.719V88.742ZM268.754 82.118C269.582 82.118 270.248 81.488 270.248 80.696C270.248 79.904 269.582 79.292 268.754 79.292C267.944 79.292 267.26 79.904 267.26 80.696C267.26 81.488 267.944 82.118 268.754 82.118ZM267.584 92H269.942V83.612H267.584V92ZM277.441 83.396C276.613 83.396 275.281 83.882 274.921 85.016V83.612H272.563V92H274.921V87.698C274.921 86.168 275.965 85.718 276.811 85.718C277.621 85.718 278.413 86.312 278.413 87.644V92H280.771V87.392C280.789 84.872 279.637 83.396 277.441 83.396Z" fill="#1F2951" />
                </g>
            </g>
            <defs>
                <filter id="filter0_d2" x="0" y="0" width="420" height="446" filterUnits="userSpaceOnUse" color-interpolation-filters="sRGB">
                    <feFlood flood-opacity="0" result="BackgroundImageFix" />
                    <feColorMatrix in="SourceAlpha" type="matrix" values="0 0 0 0 0 0 0 0 0 0 0 0 0 0 0 0 0 0 127 0" />
                    <feOffset dy="8" />
                    <feGaussianBlur stdDeviation="30" />
                    <feColorMatrix type="matrix" values="0 0 0 0 0.254902 0 0 0 0 0.305882 0 0 0 0 0.505882 0 0 0 0.2 0" />
                    <feBlend mode="normal" in2="BackgroundImageFix" result="effect1_dropShadow" />
                    <feBlend mode="normal" in="SourceGraphic" in2="effect1_dropShadow" result="shape" />
                </filter>
                <filter id="filter1_d" x="60" y="329" width="300" height="49" filterUnits="userSpaceOnUse" color-interpolation-filters="sRGB">
                    <feFlood flood-opacity="0" result="BackgroundImageFix" />
                    <feColorMatrix in="SourceAlpha" type="matrix" values="0 0 0 0 0 0 0 0 0 0 0 0 0 0 0 0 0 0 127 0" />
                    <feOffset dy="-1" />
                    <feColorMatrix type="matrix" values="0 0 0 0 0.929412 0 0 0 0 0.941176 0 0 0 0 0.992157 0 0 0 1 0" />
                    <feBlend mode="normal" in2="BackgroundImageFix" result="effect1_dropShadow" />
                    <feBlend mode="normal" in="SourceGraphic" in2="effect1_dropShadow" result="shape" />
                </filter>
                <filter id="filter2_d" x="60" y="52" width="300" height="73" filterUnits="userSpaceOnUse" color-interpolation-filters="sRGB">
                    <feFlood flood-opacity="0" result="BackgroundImageFix" />
                    <feColorMatrix in="SourceAlpha" type="matrix" values="0 0 0 0 0 0 0 0 0 0 0 0 0 0 0 0 0 0 127 0" />
                    <feOffset dy="1" />
                    <feColorMatrix type="matrix" values="0 0 0 0 0.929412 0 0 0 0 0.941176 0 0 0 0 0.992157 0 0 0 1 0" />
                    <feBlend mode="normal" in2="BackgroundImageFix" result="effect1_dropShadow" />
                    <feBlend mode="normal" in="SourceGraphic" in2="effect1_dropShadow" result="shape" />
                </filter>
            </defs>
        </svg>
    