<?xml version="1.0" standalone="no"?>
<svg viewBox="0 0 200 200" xmlns="http://www.w3.org/2000/svg">
  <path fill="#ECF0F1" d="M39,-62.9C50.5,-53.2,59.9,-42.4,69.2,-29.4C78.5,-16.5,87.6,-1.3,87.6,14C87.6,29.3,78.5,44.7,64.9,50.8C51.2,56.9,33,53.7,17,58.8C1,63.9,-12.8,77.2,-26.6,78.6C-40.4,80,-54.2,69.4,-62.7,56.2C-71.1,43,-74.4,27.1,-76.6,11C-78.9,-5,-80.3,-21.1,-75.3,-35.4C-70.4,-49.6,-59.1,-62,-45.5,-70.8C-31.8,-79.6,-15.9,-84.9,-1.1,-83.2C13.7,-81.4,27.4,-72.7,39,-62.9Z" transform="translate(100 100)" />
</svg>
