{
  "accessors": [
    {
      "bufferView": 2,
      "componentType": 5126,
      "count": 42336,
      "max": [
        1.0347599983215332,
        1.030940055847168,
        1.5386099815368652
      ],
      "min": [
        -0.6883000135421753,
        -0.0750569999217987,
        0.2725220024585724
      ],
      "type": "VEC3"
    },
    {
      "bufferView": 2,
      "byteOffset": 508032,
      "componentType": 5126,
      "count": 42336,
      "max": [
        1.0,
        1.0,
        1.0
      ],
      "min": [
        -1.0,
        -1.0,
        -1.0
      ],
      "type": "VEC3"
    },
    {
      "bufferView": 3,
      "componentType": 5126,
      "count": 42336,
      "max": [
        1.0,
        1.0,
        1.0,
        1.0
      ],
      "min": [
        -1.0,
        -1.0,
        -1.0,
        -1.0
      ],
      "type": "VEC4"
    },
    {
      "bufferView": 1,
      "componentType": 5126,
      "count": 42336,
      "max": [
        0.9957000017166138,
        0.9951379895210266
      ],
      "min": [
        0.0038774400018155575,
        0.004823389928787947
      ],
      "type": "VEC2"
    },
    {
      "bufferView": 0,
      "componentType": 5125,
      "count": 137520,
      "type": "SCALAR"
    },
    {
      "bufferView": 2,
      "byteOffset": 1016064,
      "componentType": 5126,
      "count": 714,
      "max": [
        0.5665330290794373,
        0.4670169949531555,
        1.2113800048828125
      ],
      "min": [
        -0.9788110256195068,
        -0.11856099963188171,
        0.6003879904747009
      ],
      "type": "VEC3"
    },
    {
      "bufferView": 2,
      "byteOffset": 1024632,
      "componentType": 5126,
      "count": 714,
      "max": [
        0.9931148886680603,
        0.9749547839164734,
        0.9926043748855591
      ],
      "min": [
        -0.9931147694587708,
        -0.9749547839164734,
        -0.9926046133041382
      ],
      "type": "VEC3"
    },
    {
      "bufferView": 1,
      "byteOffset": 338688,
      "componentType": 5126,
      "count": 714,
      "max": [
        0.9433649778366089,
        0.8600710034370422
      ],
      "min": [
        0.0725615993142128,
        0.0220784991979599
      ],
      "type": "VEC2"
    },
    {
      "bufferView": 0,
      "byteOffset": 550080,
      "componentType": 5125,
      "count": 2016,
      "type": "SCALAR"
    },
    {
      "bufferView": 2,
      "byteOffset": 1033200,
      "componentType": 5126,
      "count": 207,
      "max": [
        0.17890000343322754,
        0.7792189717292786,
        0.9748899936676025
      ],
      "min": [
        0.021715400740504265,
        0.6984249949455261,
        0.8362669944763184
      ],
      "type": "VEC3"
    },
    {
      "bufferView": 2,
      "byteOffset": 1035684,
      "componentType": 5126,
      "count": 207,
      "max": [
        0.4701762795448303,
        0.9603256583213806,
        0.9871886372566223
      ],
      "min": [
        -0.9632282257080078,
        -0.9343098998069763,
        -0.9871702194213867
      ],
      "type": "VEC3"
    },
    {
      "bufferView": 3,
      "byteOffset": 677376,
      "componentType": 5126,
      "count": 207,
      "max": [
        0.9343098402023315,
        0.9205660820007324,
        0.9960136413574219,
        1.0
      ],
      "min": [
        -0.9371287822723389,
        -0.9894936680793762,
        -0.9960128664970398,
        -1.0
      ],
      "type": "VEC4"
    },
    {
      "bufferView": 1,
      "byteOffset": 344400,
      "componentType": 5126,
      "count": 207,
      "max": [
        0.3044489920139313,
        0.5541250109672546
      ],
      "min": [
        0.22516900300979614,
        0.45123299956321716
      ],
      "type": "VEC2"
    },
    {
      "bufferView": 0,
      "byteOffset": 558144,
      "componentType": 5125,
      "count": 984,
      "type": "SCALAR"
    },
    {
      "bufferView": 2,
      "byteOffset": 1038168,
      "componentType": 5126,
      "count": 16783,
      "max": [
        0.7868689894676208,
        0.7858269810676575,
        1.5174599885940552
      ],
      "min": [
        -0.9652230143547058,
        0.08081500232219696,
        0.2936660051345825
      ],
      "type": "VEC3"
    },
    {
      "bufferView": 2,
      "byteOffset": 1239564,
      "componentType": 5126,
      "count": 16783,
      "max": [
        1.0,
        1.0,
        1.0
      ],
      "min": [
        -1.0,
        -1.0,
        -1.0
      ],
      "type": "VEC3"
    },
    {
      "bufferView": 3,
      "byteOffset": 680688,
      "componentType": 5126,
      "count": 16783,
      "max": [
        1.0,
        1.0,
        1.0,
        1.0
      ],
      "min": [
        -1.0,
        -1.0,
        -1.0,
        -1.0
      ],
      "type": "VEC4"
    },
    {
      "bufferView": 1,
      "byteOffset": 346056,
      "componentType": 5126,
      "count": 16783,
      "max": [
        0.9692040085792542,
        0.994504988193512
      ],
      "min": [
        0.008743509650230408,
        0.0023679800797253847
      ],
      "type": "VEC2"
    },
    {
      "bufferView": 0,
      "byteOffset": 562080,
      "componentType": 5125,
      "count": 62436,
      "type": "SCALAR"
    }
  ],
  "asset": {
    "extras": {
      "author": "Piotr Pisiak (https://sketchfab.com/piopis)",
      "license": "CC-BY-4.0 (http://creativecommons.org/licenses/by/4.0/)",
      "source": "https://sketchfab.com/3d-models/cyberpunk-speeder-78cf4a37a1604ddeb99651d531d7a0ff",
      "title": "Cyberpunk Speeder"
    },
    "generator": "Sketchfab-12.68.0",
    "version": "2.0"
  },
  "bufferViews": [
    {
      "buffer": 0,
      "byteLength": 811824,
      "name": "floatBufferViews",
      "target": 34963
    },
    {
      "buffer": 0,
      "byteLength": 480320,
      "byteOffset": 811824,
      "byteStride": 8,
      "name": "floatBufferViews",
      "target": 34962
    },
    {
      "buffer": 0,
      "byteLength": 1440960,
      "byteOffset": 1292144,
      "byteStride": 12,
      "name": "floatBufferViews",
      "target": 34962
    },
    {
      "buffer": 0,
      "byteLength": 949216,
      "byteOffset": 2733104,
      "byteStride": 16,
      "name": "floatBufferViews",
      "target": 34962
    }
  ],
  "buffers": [
    {
      "byteLength": 3682320,
      "uri": "scene.bin"
    }
  ],
  "images": [
    {
      "uri": "textures/low_back_baseColor.jpeg"
    },
    {
      "uri": "textures/low_back_metallicRoughness.png"
    },
    {
      "uri": "textures/low_back_normal.jpeg"
    },
    {
      "uri": "textures/glass_baseColor.png"
    },
    {
      "uri": "textures/glass_metallicRoughness.png"
    },
    {
      "uri": "textures/glass_normal.jpeg"
    },
    {
      "uri": "textures/engines_baseColor.png"
    },
    {
      "uri": "textures/engines_metallicRoughness.png"
    },
    {
      "uri": "textures/engines_emissive.jpeg"
    },
    {
      "uri": "textures/material_baseColor.jpeg"
    },
    {
      "uri": "textures/material_metallicRoughness.png"
    },
    {
      "uri": "textures/material_emissive.jpeg"
    },
    {
      "uri": "textures/material_normal.jpeg"
    }
  ],
  "materials": [
    {
      "doubleSided": true,
      "name": "low_back",
      "normalTexture": {
        "index": 2
      },
      "occlusionTexture": {
        "index": 1
      },
      "pbrMetallicRoughness": {
        "baseColorTexture": {
          "index": 0
        },
        "metallicRoughnessTexture": {
          "index": 1
        }
      }
    },
    {
      "alphaMode": "BLEND",
      "doubleSided": true,
      "name": "glass",
      "normalTexture": {
        "index": 5
      },
      "pbrMetallicRoughness": {
        "baseColorTexture": {
          "index": 3
        },
        "metallicRoughnessTexture": {
          "index": 4
        },
        "roughnessFactor": 0.3126905488
      }
    },
    {
      "alphaMode": "BLEND",
      "doubleSided": true,
      "emissiveFactor": [
        1.0,
        1.0,
        1.0
      ],
      "emissiveTexture": {
        "index": 8
      },
      "name": "engines",
      "pbrMetallicRoughness": {
        "baseColorTexture": {
          "index": 6
        },
        "metallicRoughnessTexture": {
          "index": 7
        }
      }
    },
    {
      "doubleSided": true,
      "emissiveFactor": [
        1.0,
        1.0,
        1.0
      ],
      "emissiveTexture": {
        "index": 11
      },
      "name": "material",
      "normalTexture": {
        "index": 12
      },
      "occlusionTexture": {
        "index": 10
      },
      "pbrMetallicRoughness": {
        "baseColorTexture": {
          "index": 9
        },
        "metallicRoughnessTexture": {
          "index": 10
        }
      }
    }
  ],
  "meshes": [
    {
      "name": "defaultMaterial",
      "primitives": [
        {
          "attributes": {
            "NORMAL": 1,
            "POSITION": 0,
            "TANGENT": 2,
            "TEXCOORD_0": 3
          },
          "indices": 4,
          "material": 3,
          "mode": 4
        }
      ]
    },
    {
      "name": "defaultMaterial",
      "primitives": [
        {
          "attributes": {
            "NORMAL": 6,
            "POSITION": 5,
            "TEXCOORD_0": 7
          },
          "indices": 8,
          "material": 2,
          "mode": 4
        }
      ]
    },
    {
      "name": "defaultMaterial",
      "primitives": [
        {
          "attributes": {
            "NORMAL": 10,
            "POSITION": 9,
            "TANGENT": 11,
            "TEXCOORD_0": 12
          },
          "indices": 13,
          "material": 1,
          "mode": 4
        }
      ]
    },
    {
      "name": "defaultMaterial",
      "primitives": [
        {
          "attributes": {
            "NORMAL": 15,
            "POSITION": 14,
            "TANGENT": 16,
            "TEXCOORD_0": 17
          },
          "indices": 18,
          "material": 0,
          "mode": 4
        }
      ]
    }
  ],
  "nodes": [
    {
      "children": [
        1
      ],
      "matrix": [
        1.0,
        0.0,
        0.0,
        0.0,
        0.0,
        2.220446049250313e-16,
        -1.0,
        0.0,
        0.0,
        1.0,
        2.220446049250313e-16,
        0.0,
        0.0,
        0.0,
        0.0,
        1.0
      ],
      "name": "Sketchfab_model"
    },
    {
      "children": [
        2,
        4,
        6,
        8
      ],
      "matrix": [
        1.0,
        0.0,
        0.0,
        0.0,
        0.0,
        -4.371139006309477e-08,
        0.999999999999999,
        0.0,
        0.0,
        -0.999999999999999,
        -4.371139006309477e-08,
        0.0,
        0.0,
        0.0,
        0.0,
        1.0
      ],
      "name": "Collada visual scene group"
    },
    {
      "children": [
        3
      ],
      "name": "front2_low"
    },
    {
      "mesh": 0,
      "name": "defaultMaterial"
    },
    {
      "children": [
        5
      ],
      "name": "vray3"
    },
    {
      "mesh": 1,
      "name": "defaultMaterial"
    },
    {
      "children": [
        7
      ],
      "name": "back_low"
    },
    {
      "mesh": 2,
      "name": "defaultMaterial"
    },
    {
      "children": [
        9
      ],
      "name": "back_low"
    },
    {
      "mesh": 3,
      "name": "defaultMaterial"
    }
  ],
  "samplers": [
    {
      "magFilter": 9729,
      "minFilter": 9987,
      "wrapS": 10497,
      "wrapT": 10497
    }
  ],
  "scene": 0,
  "scenes": [
    {
      "name": "Sketchfab_Scene",
      "nodes": [
        0
      ]
    }
  ],
  "textures": [
    {
      "sampler": 0,
      "source": 0
    },
    {
      "sampler": 0,
      "source": 1
    },
    {
      "sampler": 0,
      "source": 2
    },
    {
      "sampler": 0,
      "source": 3
    },
    {
      "sampler": 0,
      "source": 4
    },
    {
      "sampler": 0,
      "source": 5
    },
    {
      "sampler": 0,
      "source": 6
    },
    {
      "sampler": 0,
      "source": 7
    },
    {
      "sampler": 0,
      "source": 8
    },
    {
      "sampler": 0,
      "source": 9
    },
    {
      "sampler": 0,
      "source": 10
    },
    {
      "sampler": 0,
      "source": 11
    },
    {
      "sampler": 0,
      "source": 12
    }
  ]
}
