{
  "accessors": [
    {
      "bufferView": 2,
      "componentType": 5126,
      "count": 26547,
      "max": [
        0.5270119905471802,
        1.0,
        0.5873180031776428
      ],
      "min": [
        -0.5270119905471802,
        -0.1856430023908615,
        -0.04992850124835968
      ],
      "type": "VEC3"
    },
    {
      "bufferView": 2,
      "byteOffset": 318564,
      "componentType": 5126,
      "count": 26547,
      "max": [
        1.0,
        1.0,
        1.0
      ],
      "min": [
        -1.0,
        -1.0,
        -1.0
      ],
      "type": "VEC3"
    },
    {
      "bufferView": 3,
      "componentType": 5126,
      "count": 26547,
      "max": [
        1.0,
        1.0,
        1.0,
        1.0
      ],
      "min": [
        -1.0,
        -1.0,
        -1.0,
        -1.0
      ],
      "type": "VEC4"
    },
    {
      "bufferView": 1,
      "componentType": 5126,
      "count": 26547,
      "max": [
        0.9703500270843506,
        0.9914640188217163
      ],
      "min": [
        0.004875999875366688,
        0.004982000216841698
      ],
      "type": "VEC2"
    },
    {
      "bufferView": 0,
      "componentType": 5125,
      "count": 96873,
      "type": "SCALAR"
    },
    {
      "bufferView": 2,
      "byteOffset": 637128,
      "componentType": 5126,
      "count": 15356,
      "max": [
        0.3500089943408966,
        -0.19934099912643433,
        0.21333999931812286
      ],
      "min": [
        -0.33952298760414124,
        -0.8811179995536804,
        -0.46843600273132324
      ],
      "type": "VEC3"
    },
    {
      "bufferView": 2,
      "byteOffset": 821400,
      "componentType": 5126,
      "count": 15356,
      "max": [
        1.0,
        0.9999279975891113,
        0.9999279975891113
      ],
      "min": [
        -1.0,
        -0.9999279975891113,
        -0.9999279975891113
      ],
      "type": "VEC3"
    },
    {
      "bufferView": 3,
      "byteOffset": 424752,
      "componentType": 5126,
      "count": 15356,
      "max": [
        1.0,
        0.9999327063560486,
        0.9999992251396179,
        1.0
      ],
      "min": [
        -1.0,
        -1.0,
        -0.9999998807907104,
        -1.0
      ],
      "type": "VEC4"
    },
    {
      "bufferView": 1,
      "byteOffset": 212376,
      "componentType": 5126,
      "count": 15356,
      "max": [
        0.990805983543396,
        0.9908049702644348
      ],
      "min": [
        0.00919399969279766,
        0.009092999622225761
      ],
      "type": "VEC2"
    },
    {
      "bufferView": 0,
      "byteOffset": 387492,
      "componentType": 5125,
      "count": 45108,
      "type": "SCALAR"
    },
    {
      "bufferView": 2,
      "byteOffset": 1005672,
      "componentType": 5126,
      "count": 3719,
      "max": [
        0.2551400065422058,
        -0.08045859634876251,
        0.33222299814224243
      ],
      "min": [
        -0.24465300142765045,
        -1.0,
        -0.5873180031776428
      ],
      "type": "VEC3"
    },
    {
      "bufferView": 2,
      "byteOffset": 1050300,
      "componentType": 5126,
      "count": 3719,
      "max": [
        0.9994168281555176,
        0.9999219179153442,
        0.9999219179153442
      ],
      "min": [
        -0.9994168281555176,
        -0.9999219179153442,
        -0.9999219179153442
      ],
      "type": "VEC3"
    },
    {
      "bufferView": 3,
      "byteOffset": 670448,
      "componentType": 5126,
      "count": 3719,
      "max": [
        0.9999940991401672,
        0.9999269247055054,
        0.99992436170578,
        1.0
      ],
      "min": [
        -0.9999936819076538,
        -0.999935507774353,
        -0.9999603629112244,
        1.0
      ],
      "type": "VEC4"
    },
    {
      "bufferView": 1,
      "byteOffset": 335224,
      "componentType": 5126,
      "count": 3719,
      "max": [
        0.9897760152816772,
        0.49091899394989014
      ],
      "min": [
        0.010223999619483948,
        0.010223999619483948
      ],
      "type": "VEC2"
    },
    {
      "bufferView": 0,
      "byteOffset": 567924,
      "componentType": 5125,
      "count": 19968,
      "type": "SCALAR"
    },
    {
      "bufferView": 2,
      "byteOffset": 1094928,
      "componentType": 5126,
      "count": 25905,
      "max": [
        0.3713209927082062,
        -0.13062599301338196,
        0.5837429761886597
      ],
      "min": [
        -0.3713209927082062,
        -0.5952680110931396,
        -0.12331099808216095
      ],
      "type": "VEC3"
    },
    {
      "bufferView": 2,
      "byteOffset": 1405788,
      "componentType": 5126,
      "count": 25905,
      "max": [
        1.0,
        0.9999854564666748,
        0.9999990463256836
      ],
      "min": [
        -1.0,
        -0.9999854564666748,
        -0.9999990463256836
      ],
      "type": "VEC3"
    },
    {
      "bufferView": 3,
      "byteOffset": 729952,
      "componentType": 5126,
      "count": 25905,
      "max": [
        1.0,
        0.9999997615814209,
        1.0,
        1.0
      ],
      "min": [
        -1.0,
        -0.9999939799308777,
        -1.0,
        -1.0
      ],
      "type": "VEC4"
    },
    {
      "bufferView": 1,
      "byteOffset": 364976,
      "componentType": 5126,
      "count": 25905,
      "max": [
        0.9895210266113281,
        0.9911230206489563
      ],
      "min": [
        0.0104179996997118,
        0.008887000381946564
      ],
      "type": "VEC2"
    },
    {
      "bufferView": 0,
      "byteOffset": 647796,
      "componentType": 5125,
      "count": 67275,
      "type": "SCALAR"
    }
  ],
  "asset": {
    "extras": {
      "author": "Esteban GUEDON (https://sketchfab.com/estebob)",
      "license": "CC-BY-4.0 (http://creativecommons.org/licenses/by/4.0/)",
      "source": "https://sketchfab.com/3d-models/riding-robot-robottexturechallenge-fec5342649874a96b57d0a242f5da583",
      "title": "Riding robot ( #RobotTextureChallenge)"
    },
    "generator": "Sketchfab-12.67.0",
    "version": "2.0"
  },
  "bufferViews": [
    {
      "buffer": 0,
      "byteLength": 916896,
      "name": "floatBufferViews",
      "target": 34963
    },
    {
      "buffer": 0,
      "byteLength": 572216,
      "byteOffset": 916896,
      "byteStride": 8,
      "name": "floatBufferViews",
      "target": 34962
    },
    {
      "buffer": 0,
      "byteLength": 1716648,
      "byteOffset": 1489112,
      "byteStride": 12,
      "name": "floatBufferViews",
      "target": 34962
    },
    {
      "buffer": 0,
      "byteLength": 1144432,
      "byteOffset": 3205760,
      "byteStride": 16,
      "name": "floatBufferViews",
      "target": 34962
    }
  ],
  "buffers": [
    {
      "byteLength": 4350192,
      "uri": "scene.bin"
    }
  ],
  "images": [
    {
      "uri": "textures/Material_RidingRobot_Arms_baseColor.jpeg"
    },
    {
      "uri": "textures/Material_RidingRobot_Arms_metallicRoughness.png"
    },
    {
      "uri": "textures/Material_RidingRobot_Arms_normal.png"
    },
    {
      "uri": "textures/Material_RidingRobot_Wheel_baseColor.jpeg"
    },
    {
      "uri": "textures/Material_RidingRobot_Wheel_metallicRoughness.png"
    },
    {
      "uri": "textures/Material_RidingRobot_Wheel_normal.png"
    },
    {
      "uri": "textures/Material_RidingRobot_Hubs_baseColor.jpeg"
    },
    {
      "uri": "textures/Material_RidingRobot_Hubs_metallicRoughness.png"
    },
    {
      "uri": "textures/Material_RidingRobot_Hubs_normal.png"
    },
    {
      "uri": "textures/Material_RidingRobot_Head_baseColor.png"
    },
    {
      "uri": "textures/Material_RidingRobot_Head_metallicRoughness.png"
    },
    {
      "uri": "textures/Material_RidingRobot_Head_normal.png"
    }
  ],
  "materials": [
    {
      "doubleSided": true,
      "name": "Material_RidingRobot_Arms",
      "normalTexture": {
        "index": 2
      },
      "occlusionTexture": {
        "index": 1
      },
      "pbrMetallicRoughness": {
        "baseColorTexture": {
          "index": 0
        },
        "metallicRoughnessTexture": {
          "index": 1
        }
      }
    },
    {
      "doubleSided": true,
      "name": "Material_RidingRobot_Wheel",
      "normalTexture": {
        "index": 5
      },
      "occlusionTexture": {
        "index": 4
      },
      "pbrMetallicRoughness": {
        "baseColorTexture": {
          "index": 3
        },
        "metallicRoughnessTexture": {
          "index": 4
        }
      }
    },
    {
      "doubleSided": true,
      "name": "Material_RidingRobot_Hubs",
      "normalTexture": {
        "index": 8
      },
      "occlusionTexture": {
        "index": 7
      },
      "pbrMetallicRoughness": {
        "baseColorTexture": {
          "index": 6
        },
        "metallicRoughnessTexture": {
          "index": 7
        }
      }
    },
    {
      "alphaMode": "BLEND",
      "doubleSided": true,
      "name": "Material_RidingRobot_Head",
      "normalTexture": {
        "index": 11
      },
      "occlusionTexture": {
        "index": 10
      },
      "pbrMetallicRoughness": {
        "baseColorTexture": {
          "index": 9
        },
        "metallicRoughnessTexture": {
          "index": 10
        }
      }
    }
  ],
  "meshes": [
    {
      "name": "defaultMaterial",
      "primitives": [
        {
          "attributes": {
            "NORMAL": 1,
            "POSITION": 0,
            "TANGENT": 2,
            "TEXCOORD_0": 3
          },
          "indices": 4,
          "material": 3,
          "mode": 4
        }
      ]
    },
    {
      "name": "defaultMaterial",
      "primitives": [
        {
          "attributes": {
            "NORMAL": 6,
            "POSITION": 5,
            "TANGENT": 7,
            "TEXCOORD_0": 8
          },
          "indices": 9,
          "material": 2,
          "mode": 4
        }
      ]
    },
    {
      "name": "defaultMaterial",
      "primitives": [
        {
          "attributes": {
            "NORMAL": 11,
            "POSITION": 10,
            "TANGENT": 12,
            "TEXCOORD_0": 13
          },
          "indices": 14,
          "material": 1,
          "mode": 4
        }
      ]
    },
    {
      "name": "defaultMaterial",
      "primitives": [
        {
          "attributes": {
            "NORMAL": 16,
            "POSITION": 15,
            "TANGENT": 17,
            "TEXCOORD_0": 18
          },
          "indices": 19,
          "material": 0,
          "mode": 4
        }
      ]
    }
  ],
  "nodes": [
    {
      "children": [
        1
      ],
      "matrix": [
        1.0,
        0.0,
        0.0,
        0.0,
        0.0,
        2.220446049250313e-16,
        -1.0,
        0.0,
        0.0,
        1.0,
        2.220446049250313e-16,
        0.0,
        0.0,
        0.0,
        0.0,
        1.0
      ],
      "name": "Sketchfab_model"
    },
    {
      "children": [
        2,
        4,
        6,
        8
      ],
      "matrix": [
        1.0,
        0.0,
        0.0,
        0.0,
        0.0,
        -4.371139006309477e-08,
        0.999999999999999,
        0.0,
        0.0,
        -0.999999999999999,
        -4.371139006309477e-08,
        0.0,
        0.0,
        0.0,
        0.0,
        1.0
      ],
      "name": "Collada visual scene group"
    },
    {
      "children": [
        3
      ],
      "name": "Head_Cylinder"
    },
    {
      "mesh": 0,
      "name": "defaultMaterial"
    },
    {
      "children": [
        5
      ],
      "name": "Wheel.Hub_Cylinder.001"
    },
    {
      "mesh": 1,
      "name": "defaultMaterial"
    },
    {
      "children": [
        7
      ],
      "name": "Wheel.Tire_Cylinder.002"
    },
    {
      "mesh": 2,
      "name": "defaultMaterial"
    },
    {
      "children": [
        9
      ],
      "name": "Arms_Cylinder.003"
    },
    {
      "mesh": 3,
      "name": "defaultMaterial"
    }
  ],
  "samplers": [
    {
      "magFilter": 9729,
      "minFilter": 9987,
      "wrapS": 10497,
      "wrapT": 10497
    }
  ],
  "scene": 0,
  "scenes": [
    {
      "name": "Sketchfab_Scene",
      "nodes": [
        0
      ]
    }
  ],
  "textures": [
    {
      "sampler": 0,
      "source": 0
    },
    {
      "sampler": 0,
      "source": 1
    },
    {
      "sampler": 0,
      "source": 2
    },
    {
      "sampler": 0,
      "source": 3
    },
    {
      "sampler": 0,
      "source": 4
    },
    {
      "sampler": 0,
      "source": 5
    },
    {
      "sampler": 0,
      "source": 6
    },
    {
      "sampler": 0,
      "source": 7
    },
    {
      "sampler": 0,
      "source": 8
    },
    {
      "sampler": 0,
      "source": 9
    },
    {
      "sampler": 0,
      "source": 10
    },
    {
      "sampler": 0,
      "source": 11
    }
  ]
}
